<svg width="221" height="144" viewBox="0 0 221 144" fill="none" xmlns="http://www.w3.org/2000/svg">
<path d="M149.879 120.659C149.469 121.147 148.988 121.728 148.58 122.224L132.332 118.939L131.1 113.263L147.031 117.536C146.927 118.493 147.754 119.312 148.071 119.622C148.573 120.113 149.192 120.466 149.869 120.649L149.879 120.659Z" fill="#8DA092"/>
<path d="M93.5593 116.272L78.005 119.825C77.4151 118.822 76.6302 117.479 76.0403 116.47C77.2328 115.738 78.3738 114.924 79.4552 114.035L80.4688 114.882L92.9433 112.015L93.5593 116.272Z" fill="#8DA092"/>
<path d="M79.4552 114.035C78.3738 114.924 77.2328 115.738 76.0403 116.47L79.4552 114.035Z" fill="#6A3E00"/>
<path d="M69.3274 101.029L66.8481 104.541L64.452 102.137L67.685 99.2015C68.1216 99.6916 68.8908 100.539 69.3274 101.029Z" fill="#8DA092"/>
<path d="M69.3275 101.029C69.0481 101.75 68.6805 102.434 68.2333 103.065C67.8399 103.618 67.374 104.115 66.8481 104.543L69.3275 101.029Z" fill="#8DA092"/>
<path d="M74.9488 100.354L73.9222 102.312C73.3806 103.185 72.6594 103.933 71.8067 104.504L71.6118 104.629C70.7174 105.187 69.7126 105.543 68.6673 105.672C68.7756 106.302 68.7365 106.949 68.5529 107.562C68.428 107.967 68.2317 108.347 67.9734 108.683C67.5671 109.203 67.0284 109.604 66.4141 109.843C66.092 109.892 65.763 109.861 65.4551 109.754C65.2291 109.65 65.0252 109.503 64.8548 109.322C64.5673 108.969 64.3693 108.551 64.2778 108.104C64.21 107.688 64.229 107.262 64.3337 106.853C64.4384 106.444 64.6264 106.062 64.8859 105.729C65.5922 105.428 66.2527 105.029 66.8481 104.543C67.3739 104.115 67.8398 103.618 68.2333 103.065C68.6805 102.434 69.048 101.75 69.3274 101.029C69.356 100.951 69.382 100.878 69.4054 100.807C69.803 100.547 70.9985 99.7646 72.3837 99.7412C73.2764 99.7267 74.1584 99.9373 74.9488 100.354Z" fill="#913252"/>
<path d="M88.1017 96.884C86.0726 100.054 83.459 102.807 80.4012 104.994C80.8456 106.1 81.1809 107.051 81.4018 107.776C81.854 109.191 81.9215 109.661 81.789 110.169C81.5949 110.83 81.1813 111.405 80.6169 111.798C80.6048 111.668 80.5822 111.539 80.5493 111.413C80.5123 111.191 80.4232 110.982 80.2895 110.803C80.1907 110.2 80.1569 109.549 80.0582 108.946C79.8684 109.345 79.5904 109.893 79.4006 110.292C79.2108 110.271 79.019 110.279 78.8315 110.315C79.0787 109.994 79.2333 109.61 79.2785 109.207C79.3292 108.707 79.2325 108.203 79.0004 107.758C78.7665 106.944 78.595 106.071 78.3585 105.255C78.174 105.818 77.9375 106.522 77.753 107.08C77.61 107.095 77.469 107.125 77.3319 107.168H77.306C77.3508 106.883 77.3385 106.591 77.2698 106.31C77.2011 106.028 77.0773 105.764 76.9057 105.531C76.7134 104.658 76.4873 103.563 76.295 102.692C75.9234 103.328 75.4452 104.181 75.0709 104.817V104.835C74.9098 104.853 74.7512 104.889 74.5979 104.942C74.3161 105.043 74.0572 105.199 73.8363 105.401C73.6154 105.604 73.437 105.848 73.3115 106.12L71.8171 104.499C72.6698 103.927 73.3911 103.18 73.9326 102.306L74.9592 100.349C75.0735 100.409 75.1697 100.466 75.2424 100.51C77.0721 97.4915 79.2714 94.7143 81.789 92.2437C81.815 93.7114 82.0697 95.1791 82.0957 96.6468C83.9721 96.6781 86.2045 96.858 88.1017 96.884Z" fill="#913252"/>
<path d="M221 110.671C216.379 111.193 213.027 110.178 211.259 109.475C207.564 108.004 205.188 105.674 202.327 102.869C200.522 101.1 198.861 99.1892 197.361 97.1542C197.796 98.5644 198.473 99.8877 199.362 101.065C201.028 103.254 202.792 104.026 202.634 104.386C202.395 104.936 197.914 104.06 194.125 102.107C191.266 100.64 186.1 97.1542 182.266 88.5904C182.127 89.6208 182.179 90.6681 182.42 91.6796C183.371 95.5509 186.934 97.3471 186.617 97.8972C186.3 98.4472 182.88 97.5061 179.148 95.3111C175.92 93.4106 171.078 89.7166 166.866 82.2555C166.921 83.6985 167.261 85.1162 167.866 86.4266C169.202 89.2603 171.312 90.337 171.102 90.6759C170.774 91.213 165.096 89.4246 160.475 85.0762C157.911 82.6373 155.902 79.6728 154.583 76.3846C154.36 77.8027 154.466 79.2531 154.893 80.6235C155.787 83.3973 157.814 84.7816 157.588 85.0553C157.312 85.4021 154.019 83.6737 150.656 80.8451C147.261 77.9615 144.386 74.5124 142.158 70.6493C142.251 72.083 142.577 73.4919 143.122 74.8205C144.097 77.1667 145.391 78.2929 145.123 78.6057C144.856 78.9186 143.39 77.9436 138.847 75.1672C135.315 73.0086 134.356 72.4846 133.265 71.1134C132.328 69.9208 131.632 68.5561 131.217 67.0961C131.207 67.0947 131.196 67.0947 131.186 67.0961C130.172 67.1847 128.475 74.26 130.492 79.8701C132.844 86.4162 139.671 89.3985 142.35 90.5586C144.681 91.5739 147.145 92.2507 149.666 92.5686C148.381 94.4306 146.551 95.847 144.43 96.6224C143.962 98.4472 142.982 100.937 142.514 102.772C141.087 102.452 138.616 102.154 137.192 101.836C137.132 104.425 136.148 106.906 134.419 108.828C134.16 106.198 133.431 103.637 132.264 101.268C130.433 97.6085 127.637 94.5229 124.179 92.347C122.955 99.7603 123.627 107.364 126.131 114.446C126.732 117.448 127.573 120.396 128.644 123.263C129.291 124.994 129.982 126.592 130.684 128.052C128.451 129.011 126.065 129.561 123.639 129.673C124.04 133.266 125.237 136.722 127.142 139.791C123.046 140.834 118.876 141.838 114.631 142.804C112.838 143.215 111.053 143.613 109.277 144.001C107.115 143.579 104.807 143.036 102.385 142.34C99.0142 141.371 95.7093 140.184 92.4911 138.787C94.9806 136.249 96.4007 132.847 96.457 129.287C94.1163 128.717 91.8628 127.833 89.7571 126.66C91.6517 123.439 93.3224 120.09 94.7573 116.639C97.6681 109.638 99.5756 102.259 100.423 94.7219C100.221 93.1987 99.6671 91.7438 98.8064 90.4726C98.2398 91.3277 97.351 92.6337 96.1867 94.1797C94.1076 96.9326 93.276 97.6521 92.4132 99.2788C91.5173 101.004 90.9931 102.898 90.8746 104.839C88.9604 102.646 87.9667 99.7949 88.1016 96.8831C86.2149 96.857 83.9824 96.6771 82.0957 96.651C82.0697 95.1833 81.815 93.7156 81.789 92.2479C80.5217 92.0879 79.3026 91.6601 78.2123 90.9928C77.1219 90.3255 76.185 89.4338 75.4633 88.3766C78.7628 88.3052 82.0073 87.5151 84.9722 86.0612C87.937 84.6072 90.5514 82.5241 92.6341 79.9562C93.3605 78.4783 93.7764 76.8664 93.856 75.2206C93.9355 73.5748 93.6771 71.9301 93.0967 70.3886C90.2431 73.8954 86.5605 76.6305 82.3841 78.345C82.8718 77.4141 83.1705 76.3953 83.2628 75.3477C83.3552 74.3001 83.2394 73.2446 82.9221 72.2422C82.3281 74.1583 81.4171 75.9605 80.2271 77.5734C76.6224 82.4406 71.5287 84.0308 69.6003 84.5235C70.3337 83.7577 70.8601 82.8168 71.1298 81.7899C71.3994 80.7631 71.4035 79.6841 71.1414 78.6553C70.6505 79.901 70.0312 81.0919 69.2936 82.2085C64.9873 88.7051 57.8222 90.7489 54.8933 91.398C55.8089 90.6443 56.545 89.6948 57.0478 88.619C57.6725 87.2692 57.9127 85.7724 57.7417 84.2941C57.2359 85.6698 56.5906 86.9898 55.8159 88.2332C51.2029 95.6239 43.253 98.1396 39.9628 98.9686C40.7109 98.212 41.3111 97.3216 41.7326 96.3434C42.3999 94.7592 42.5879 93.0131 42.2732 91.3224C41.1739 93.7625 37.8551 100.256 30.4146 104.222C27.3541 105.839 24.0048 106.833 20.5597 107.147C21.9371 106.284 23.0483 105.055 23.7689 103.595C24.4894 102.136 24.791 100.504 24.6399 98.8826C23.0173 102.062 20.7949 104.895 18.0959 107.225C10.9984 113.328 2.83537 113.891 0 113.953C9.92453 103.176 18.7468 91.4278 26.3343 78.8847C32.119 69.322 37.1652 59.3291 41.4286 48.9934C40.1499 49.7171 38.6607 49.9739 37.2145 49.72C35.7684 49.4662 34.4546 48.7175 33.4968 47.6013C35.2593 47.0019 36.9233 46.1436 38.4347 45.0543C42.702 41.9651 44.5524 37.8513 45.2879 35.8622C49.4461 27.7807 57.4272 22.6294 66.0009 22.5668C75.5387 22.5068 81.7266 28.7844 82.8649 29.9836C86.9841 34.5118 93.1123 35.2392 96.7273 32.5331C100.004 30.0774 100.106 25.6273 100.106 24.973C100.366 23.8624 100.711 21.537 99.4899 19.4124C99.3242 19.1217 99.1347 18.8452 98.9233 18.586C97.4541 19.2191 95.882 19.5778 94.2844 19.6444C93.7646 19.6626 92.9329 19.6001 92.4833 19.5662C92.4184 18.9692 92.3482 18.3331 92.2754 17.6892C94.1173 17.4252 95.9237 16.9539 97.6603 16.284C98.9778 15.7399 100.235 15.0602 101.413 14.2558C100.361 14.4139 99.3005 14.5096 98.2372 14.5426C96.7512 14.5894 95.2638 14.5117 93.7906 14.3106C93.1536 14.3248 92.5267 14.4731 91.9506 14.7459C91.6376 14.8932 91.3435 15.0779 91.0748 15.296C90.4328 15.8179 89.9479 16.5083 89.674 17.2903C89.6272 17.4233 89.596 17.5328 89.5752 17.611L87.5533 15.004C87.5039 14.7694 87.1661 13.0332 88.3044 11.7584C88.4112 11.6378 88.5277 11.5262 88.6526 11.4247C88.9309 11.2033 89.2423 11.0274 89.5752 10.9033L90.9786 9.94134L96.5038 6.15344C96.9457 6.08165 97.3976 6.10117 97.8318 6.21079C98.258 6.32028 98.4867 6.47149 98.5829 6.38546C98.7336 6.24468 97.9332 5.67115 97.9488 4.87864C97.9662 4.57699 98.0729 4.28742 98.2554 4.04703C98.9571 3.00425 100.522 2.79308 101.53 2.54282C103.695 1.99536 103.695 1.25238 105.61 0.561536C109.191 -0.72369 112.729 0.574571 113.194 0.75445C115.806 1.75552 117.352 3.52303 118.893 5.3114C120.234 6.85732 119.964 6.98766 121.232 8.55705C124.595 12.6838 128.285 14.0134 127.932 14.9284C127.753 15.3899 126.671 15.4264 125.39 15.4707C123.34 15.5385 122.547 15.0092 122.194 15.3925C122.053 15.5437 121.562 16.2945 124.618 20.6455C128.018 25.4814 130.695 27.5017 130.125 28.5237C129.865 29.0033 129.013 29.0112 127.352 29.0268C124.829 29.0477 123.303 28.4272 123.272 28.5237C123.202 28.727 129.637 33.1562 136.285 31.6911C138.925 31.1071 139.143 30.1269 144.063 27.056C150.389 23.0934 154.679 20.4056 159.888 20.4526C165.314 20.4995 169.368 23.4923 170.899 24.6237C175.855 28.2734 175.962 31.6624 181.063 37.7549C183.869 41.0957 187.12 44.0327 190.726 46.4829C189.872 47.2906 188.825 47.8627 187.685 48.1436C184.806 48.8031 183.088 46.9157 182.256 47.4866C180.697 48.5476 183.815 57.0176 191.96 71.6243C195.687 78.3033 197.834 82.1512 201.508 87.498C207.246 95.8347 213.773 103.595 221 110.671Z" fill="#ECC091"/>
<path d="M154.401 110.484L153.102 111.858C152.936 111.825 152.766 111.815 152.598 111.827C152.281 111.851 151.974 111.953 151.706 112.124L149.999 110.651C150.243 111.41 150.599 112.44 150.844 113.201C150.837 113.212 150.832 113.224 150.831 113.237C150.538 113.325 150.261 113.458 150.009 113.631V113.615C149.401 113.107 148.637 112.492 148.026 111.983C148.354 112.909 148.926 114.126 149.253 115.054C149.272 115.349 149.326 115.641 149.414 115.923C149.503 116.271 149.628 116.609 149.786 116.931C149.726 116.856 148.991 116.058 148.346 116.097C148.272 116.101 148.199 116.114 148.128 116.134L146.449 114.765L147.156 117.111C147.123 117.196 147.096 117.283 147.075 117.372C146.017 115.993 145.542 114.275 145.583 113.529C145.617 112.901 145.802 112.612 145.815 111.947C145.793 110.916 145.427 109.923 144.775 109.126L139.577 104.144L137.189 101.866C138.618 102.184 141.087 102.481 142.512 102.802C142.979 100.977 143.959 98.4847 144.427 96.652C144.648 97.0039 147.727 101.947 149.973 105.072C150.36 105.615 151.184 106.733 152.205 106.694L152.59 109.59C153.151 109.969 153.76 110.27 154.401 110.484Z" fill="#913252"/>
<path d="M163.825 107.698C162.991 108.48 161.889 109.301 161.055 110.073L157.51 106.811C157.697 106.771 157.871 106.681 158.011 106.551C159.03 105.662 160.893 103.422 161.208 103.036L163.825 107.698Z" fill="#8DA092"/>
<path d="M90.9786 9.92923L89.5752 10.8912C89.2422 11.0153 88.9309 11.1912 88.6526 11.4126C88.4473 9.73892 88.1822 7.62729 87.9769 5.95363C88.0248 5.66811 88.1629 5.40559 88.3709 5.20481C88.5789 5.00404 88.8457 4.87562 89.1319 4.83853C89.4182 4.80143 89.7087 4.8576 89.9608 4.99877C90.2128 5.13994 90.4129 5.35861 90.5316 5.62255C90.6797 6.99641 90.8304 8.57101 90.9786 9.92923Z" fill="#8DA092"/>
<path d="M92.4807 19.554C92.2226 20.7706 91.9627 21.9811 91.7011 23.1855L90.0846 20.0937C89.9676 19.3351 89.7805 18.042 89.6636 17.2834C89.9375 16.5014 90.4225 15.811 91.0644 15.2891C91.3331 15.071 91.6272 14.8863 91.9402 14.739L92.2624 17.6797C92.3456 18.3314 92.4158 18.9675 92.4807 19.554Z" fill="#8DA092"/>
<path d="M66.4141 109.843L64.5092 111.754C64.6252 110.942 64.7405 110.132 64.8548 109.322C65.0253 109.503 65.2291 109.65 65.4551 109.755C65.763 109.861 66.092 109.892 66.4141 109.843Z" fill="#414042"/>
<path d="M76.8927 105.536C76.8324 105.46 76.7664 105.389 76.6952 105.323C76.4731 105.129 76.2122 104.986 75.9301 104.903C75.6481 104.82 75.3515 104.799 75.0605 104.84V104.822C75.4347 104.186 75.9129 103.334 76.2846 102.698C76.4743 103.568 76.7004 104.663 76.8927 105.536Z" fill="#414042"/>
<path d="M73.301 106.126C73.2349 106.258 73.1818 106.397 73.1425 106.54C72.3175 106.626 71.4983 106.761 70.6892 106.944C70.0083 107.101 69.1299 107.374 68.5529 107.562C68.7365 106.949 68.7756 106.302 68.6673 105.672C69.7126 105.543 70.7174 105.187 71.6118 104.629L71.8067 104.504L73.301 106.126Z" fill="#8DA092"/>
<path d="M77.293 107.174C77.2481 107.615 77.0664 108.032 76.7732 108.365C76.1781 109.001 75.3127 108.772 74.3485 108.915C73.127 109.095 71.4585 109.916 69.6705 112.883C69.016 113.027 68.3472 113.095 67.6772 113.086H67.2926C66.1309 113.055 65.8216 112.951 65.6579 112.826C65.1797 112.492 64.9068 111.751 64.8262 111.428L66.4063 109.843C67.0207 109.604 67.5594 109.203 67.9657 108.683C68.224 108.347 68.4203 107.967 68.5452 107.562C69.1144 107.374 70.0006 107.101 70.6815 106.944C71.4906 106.761 72.3098 106.626 73.1348 106.54C73.1741 106.397 73.2272 106.258 73.2933 106.126C73.4188 105.853 73.5972 105.609 73.8181 105.406C74.039 105.204 74.298 105.048 74.5798 104.947C74.733 104.894 74.8917 104.858 75.0528 104.84C75.3438 104.799 75.6404 104.82 75.9224 104.903C76.2045 104.986 76.4654 105.129 76.6875 105.323C76.7586 105.389 76.8247 105.46 76.885 105.536C77.0579 105.769 77.1831 106.033 77.2532 106.314C77.3232 106.595 77.3368 106.887 77.293 107.174Z" fill="#913252"/>
<path d="M78.9874 107.752C78.8782 107.522 78.6979 107.333 78.4732 107.213C78.2486 107.093 77.9915 107.049 77.74 107.088C77.9245 106.527 78.161 105.823 78.3455 105.263C78.582 106.066 78.7458 106.939 78.9874 107.752Z" fill="#414042"/>
<path d="M79.2655 109.204C79.2203 109.608 79.0657 109.991 78.8185 110.312C78.6194 110.578 78.3747 110.806 78.096 110.985L71.079 115.302C70.921 115.364 70.7803 115.463 70.6693 115.592C70.5584 115.72 70.4804 115.874 70.4423 116.04C70.4135 116.245 70.4547 116.455 70.5593 116.634L70.4293 116.676C70.0473 116.78 68.935 117.004 68.0462 116.3C67.6921 116.014 67.427 115.633 67.2821 115.2C67.2821 114.525 67.2821 113.764 67.3003 113.086H67.6849C68.3549 113.095 69.0238 113.027 69.6783 112.883C71.4663 109.916 73.1347 109.095 74.3562 108.915C75.3204 108.772 76.1754 109.001 76.781 108.365C77.0741 108.032 77.2559 107.615 77.3007 107.174H77.3267C77.4638 107.13 77.6048 107.1 77.7477 107.085C77.9993 107.047 78.2563 107.091 78.481 107.21C78.7056 107.33 78.8859 107.519 78.9952 107.75C79.2256 108.197 79.3196 108.703 79.2655 109.204Z" fill="#913252"/>
<path d="M80.2765 110.797C80.1748 110.651 80.0427 110.528 79.8892 110.438C79.7357 110.348 79.5646 110.293 79.3876 110.276C79.5774 109.877 79.8554 109.33 80.0452 108.931C80.1439 109.546 80.1777 110.198 80.2765 110.797Z" fill="#414042"/>
<path d="M80.5441 112.549C80.435 112.986 80.2011 113.382 79.871 113.688L79.4552 114.035L76.0403 116.47C75.8506 116.587 75.6582 116.702 75.4607 116.817C74.441 117.411 73.3875 117.944 72.3057 118.415C72.0238 118.428 71.7426 118.378 71.4826 118.268C71.2226 118.158 70.9906 117.991 70.8036 117.779C70.579 117.453 70.4494 117.071 70.4293 116.676L70.5593 116.634C70.4547 116.455 70.4135 116.246 70.4423 116.04C70.4804 115.874 70.5584 115.72 70.6693 115.592C70.7803 115.463 70.921 115.364 71.079 115.302L78.096 110.985C78.3747 110.806 78.6194 110.578 78.8185 110.312C79.0059 110.276 79.1978 110.268 79.3876 110.289C79.5646 110.306 79.7357 110.362 79.8892 110.452C80.0427 110.542 80.1748 110.664 80.2764 110.81C80.4102 110.99 80.4993 111.199 80.5363 111.42C80.5692 111.547 80.5918 111.676 80.6039 111.806C80.6249 112.055 80.6047 112.306 80.5441 112.549Z" fill="#913252"/>
<path d="M79.4552 114.035C78.3738 114.924 77.2328 115.738 76.0403 116.47L79.4552 114.035Z" fill="#6A3E00"/>
<path d="M161.985 113.459L161.938 113.493C161.661 113.648 161.35 113.732 161.032 113.738C160.715 113.743 160.401 113.67 160.119 113.524C159.694 113.329 159.326 113.027 159.051 112.648C159.009 112.596 158.973 112.541 158.936 112.487L158.32 110.711C157.338 110.917 156.325 110.924 155.34 110.731C154.355 110.539 153.418 110.151 152.585 109.59L152.2 106.694C152.6 106.678 152.668 106.498 153.546 106.23C154.191 106.034 154.939 105.805 155.703 105.922C156.605 106.058 156.85 106.934 157.523 106.811C157.783 107.095 158.17 107.593 158.466 107.872C158.895 108.295 159.347 108.709 159.789 109.087C160.197 109.438 160.624 109.767 161.067 110.073C161.182 110.057 161.78 109.833 162.26 110.286C162.51 110.548 162.659 110.889 162.681 111.251C162.754 111.84 162.707 112.948 161.985 113.459Z" fill="#913252"/>
<path d="M161.985 113.459C161.808 114.27 161.611 115.187 161.434 115.998C161.34 115.829 161.244 115.649 161.145 115.464C160.805 114.822 160.444 114.108 160.124 113.524C160.406 113.67 160.72 113.743 161.038 113.738C161.355 113.732 161.666 113.648 161.943 113.493L161.985 113.459Z" fill="#414042"/>
<path d="M151.709 112.127C151.309 112.377 151.006 112.755 150.849 113.201C150.604 112.44 150.248 111.41 150.004 110.651L151.709 112.127Z" fill="#414042"/>
<path d="M159.051 112.648C158.342 112.456 157.597 112.433 156.878 112.583C156.047 112.818 155.316 113.321 154.799 114.014C154.806 113.747 154.76 113.481 154.664 113.232C154.532 112.897 154.321 112.598 154.05 112.362C153.778 112.125 153.454 111.958 153.105 111.874L154.404 110.5C155.666 110.924 157.018 111.002 158.32 110.727L158.936 112.502C158.97 112.541 159.007 112.596 159.051 112.648Z" fill="#8DA092"/>
<path d="M161.145 115.464C161.035 115.592 160.915 115.712 160.787 115.823C160.648 115.95 160.491 116.055 160.322 116.136C159.664 116.428 159.313 116.118 158.609 116.254C157.707 116.426 157.666 117.036 156.79 117.257C156.215 117.378 155.617 117.296 155.095 117.025C154.802 116.525 154.316 115.912 153.596 115.722C152.876 115.531 152.556 115.915 151.94 115.683C151.576 115.525 151.267 115.263 151.051 114.929C150.835 114.596 150.722 114.206 150.727 113.808C150.73 113.611 150.764 113.416 150.828 113.23C150.83 113.217 150.834 113.204 150.841 113.193C150.998 112.748 151.301 112.369 151.701 112.119C151.969 111.948 152.276 111.845 152.593 111.822C152.761 111.81 152.931 111.82 153.097 111.853C153.446 111.937 153.771 112.105 154.042 112.341C154.313 112.577 154.524 112.876 154.656 113.211C154.752 113.46 154.798 113.726 154.791 113.993C155.309 113.3 156.039 112.797 156.87 112.562C157.59 112.412 158.334 112.435 159.043 112.627C159.32 113.007 159.691 113.309 160.119 113.503C160.444 114.108 160.805 114.822 161.145 115.464Z" fill="#913252"/>
<path d="M150.012 113.634C149.728 113.822 149.505 114.088 149.367 114.4C149.282 114.608 149.24 114.832 149.245 115.057C148.918 114.129 148.346 112.912 148.019 111.986C148.629 112.494 149.393 113.11 150.001 113.618L150.012 113.634Z" fill="#414042"/>
<path d="M161.283 117.528C161.143 118.832 159.862 119.432 159.802 119.458L159.571 119.562C159.18 119.73 158.773 119.858 158.357 119.942C157.612 120.126 156.836 120.138 156.085 119.979C154.664 119.619 154.75 118.675 153.411 118.318C152.247 118.011 151.917 118.655 151.005 118.222C150.465 117.94 150.034 117.487 149.778 116.934C149.62 116.611 149.495 116.273 149.406 115.925C149.319 115.643 149.264 115.352 149.245 115.057C149.24 114.832 149.282 114.608 149.367 114.4C149.505 114.088 149.728 113.822 150.012 113.634C150.263 113.46 150.541 113.327 150.833 113.24C150.769 113.426 150.735 113.622 150.732 113.819C150.727 114.216 150.84 114.606 151.056 114.94C151.272 115.273 151.582 115.535 151.945 115.693C152.561 115.925 152.907 115.56 153.601 115.732C154.295 115.904 154.807 116.514 155.1 117.036C155.622 117.307 156.22 117.389 156.795 117.268C157.663 117.057 157.705 116.436 158.614 116.264C159.318 116.128 159.669 116.439 160.327 116.147C160.496 116.066 160.653 115.96 160.792 115.834C161.133 116.331 161.306 116.925 161.283 117.528Z" fill="#913252"/>
<path d="M148.12 116.134C147.894 116.211 147.69 116.339 147.521 116.508C147.353 116.677 147.225 116.882 147.148 117.109L146.441 114.762L148.12 116.134Z" fill="#414042"/>
<path d="M159.571 119.562C159.495 119.906 159.222 121.126 158.243 121.892C156.709 123.099 154.83 122.526 154.661 122.471C154.205 121.979 153.656 121.582 153.047 121.304C152.437 121.026 151.778 120.871 151.109 120.85C150.693 120.835 150.28 120.771 149.879 120.659L147.616 118.185L147.031 117.544C147.037 117.489 147.046 117.434 147.06 117.38C147.08 117.291 147.107 117.204 147.14 117.119C147.217 116.893 147.345 116.687 147.513 116.518C147.682 116.349 147.887 116.221 148.112 116.144C148.183 116.124 148.257 116.112 148.33 116.108C148.975 116.068 149.71 116.866 149.77 116.942C150.026 117.495 150.457 117.948 150.997 118.23C151.909 118.662 152.239 118.018 153.403 118.326C154.742 118.681 154.656 119.63 156.078 119.987C156.828 120.146 157.604 120.133 158.349 119.95C158.769 119.864 159.178 119.733 159.571 119.562Z" fill="#913252"/>
<path d="M149.877 120.659C149.2 120.477 148.581 120.123 148.078 119.632C147.761 119.319 146.935 118.501 147.039 117.547L147.624 118.188L149.877 120.659Z" fill="#913252"/>
</svg>
