<svg width="252" height="166" viewBox="0 0 252 166" fill="none" xmlns="http://www.w3.org/2000/svg">
<rect width="252" height="166" fill="#32302E"/>
<path d="M165.879 131.659C165.469 132.147 164.988 132.728 164.58 133.224L148.332 129.939L147.1 124.263L163.031 128.536C162.927 129.493 163.754 130.312 164.071 130.622C164.573 131.113 165.192 131.466 165.869 131.649L165.879 131.659Z" fill="#8DA092"/>
<path d="M109.559 127.272L94.005 130.825C93.4151 129.822 92.6302 128.479 92.0403 127.47C93.2328 126.738 94.3738 125.924 95.4552 125.035L96.4688 125.882L108.943 123.015L109.559 127.272Z" fill="#8DA092"/>
<path d="M95.4552 125.035C94.3738 125.924 93.2328 126.738 92.0403 127.47L95.4552 125.035Z" fill="#6A3E00"/>
<path d="M85.3274 112.029L82.8481 115.541L80.452 113.137L83.685 110.202C84.1216 110.692 84.8908 111.539 85.3274 112.029Z" fill="#8DA092"/>
<path d="M85.3275 112.029C85.0481 112.75 84.6805 113.434 84.2333 114.065C83.8399 114.618 83.374 115.115 82.8481 115.543L85.3275 112.029Z" fill="#8DA092"/>
<path d="M90.9488 111.354L89.9222 113.312C89.3806 114.185 88.6594 114.933 87.8067 115.504L87.6118 115.629C86.7174 116.187 85.7126 116.543 84.6673 116.672C84.7756 117.302 84.7365 117.949 84.5529 118.562C84.428 118.967 84.2317 119.347 83.9734 119.683C83.5671 120.203 83.0284 120.604 82.4141 120.843C82.092 120.892 81.763 120.861 81.4551 120.754C81.2291 120.65 81.0252 120.503 80.8548 120.322C80.5673 119.969 80.3693 119.551 80.2778 119.104C80.21 118.688 80.229 118.262 80.3337 117.853C80.4384 117.444 80.6264 117.062 80.8859 116.729C81.5922 116.428 82.2527 116.029 82.8481 115.543C83.3739 115.115 83.8398 114.618 84.2333 114.065C84.6805 113.434 85.048 112.75 85.3274 112.029C85.356 111.951 85.382 111.878 85.4054 111.807C85.803 111.547 86.9985 110.765 88.3837 110.741C89.2764 110.727 90.1584 110.937 90.9488 111.354Z" fill="#913252"/>
<path d="M104.102 107.884C102.073 111.054 99.459 113.807 96.4012 115.994C96.8456 117.1 97.1809 118.051 97.4018 118.776C97.854 120.191 97.9215 120.661 97.789 121.169C97.5949 121.83 97.1813 122.405 96.6169 122.798C96.6048 122.668 96.5822 122.539 96.5493 122.413C96.5123 122.191 96.4232 121.982 96.2895 121.803C96.1907 121.2 96.1569 120.549 96.0582 119.946C95.8684 120.345 95.5904 120.893 95.4006 121.292C95.2108 121.271 95.019 121.279 94.8315 121.315C95.0787 120.994 95.2333 120.61 95.2785 120.207C95.3292 119.707 95.2325 119.203 95.0004 118.758C94.7665 117.944 94.595 117.071 94.3585 116.255C94.174 116.818 93.9375 117.522 93.753 118.08C93.61 118.095 93.469 118.125 93.3319 118.168H93.306C93.3508 117.883 93.3385 117.591 93.2698 117.31C93.2011 117.028 93.0773 116.764 92.9057 116.531C92.7134 115.658 92.4873 114.563 92.295 113.692C91.9234 114.328 91.4452 115.181 91.0709 115.817V115.835C90.9098 115.853 90.7512 115.889 90.5979 115.942C90.3161 116.043 90.0572 116.199 89.8363 116.401C89.6154 116.604 89.437 116.848 89.3115 117.12L87.8171 115.499C88.6698 114.927 89.3911 114.18 89.9326 113.306L90.9592 111.349C91.0735 111.409 91.1697 111.466 91.2424 111.51C93.0721 108.491 95.2714 105.714 97.789 103.244C97.815 104.711 98.0697 106.179 98.0957 107.647C99.9721 107.678 102.204 107.858 104.102 107.884Z" fill="#913252"/>
<path d="M237 121.671C232.379 122.193 229.027 121.178 227.259 120.475C223.564 119.004 221.188 116.674 218.327 113.869C216.522 112.1 214.861 110.189 213.361 108.154C213.796 109.564 214.473 110.888 215.362 112.065C217.028 114.254 218.792 115.026 218.634 115.386C218.395 115.936 213.914 115.06 210.125 113.107C207.266 111.64 202.1 108.154 198.266 99.5904C198.127 100.621 198.179 101.668 198.42 102.68C199.371 106.551 202.934 108.347 202.617 108.897C202.3 109.447 198.88 108.506 195.148 106.311C191.92 104.411 187.078 100.717 182.866 93.2555C182.921 94.6985 183.261 96.1162 183.866 97.4266C185.202 100.26 187.312 101.337 187.102 101.676C186.774 102.213 181.096 100.425 176.475 96.0762C173.911 93.6373 171.902 90.6728 170.583 87.3846C170.36 88.8027 170.466 90.2531 170.893 91.6235C171.787 94.3973 173.814 95.7816 173.588 96.0553C173.312 96.4021 170.019 94.6737 166.656 91.8451C163.261 88.9615 160.386 85.5124 158.158 81.6493C158.251 83.083 158.577 84.4919 159.122 85.8205C160.097 88.1667 161.391 89.2929 161.123 89.6057C160.856 89.9186 159.39 88.9436 154.847 86.1672C151.315 84.0086 150.356 83.4846 149.265 82.1134C148.328 80.9208 147.632 79.5561 147.217 78.0961C147.207 78.0947 147.196 78.0947 147.186 78.0961C146.172 78.1847 144.475 85.26 146.492 90.8701C148.844 97.4162 155.671 100.399 158.35 101.559C160.681 102.574 163.145 103.251 165.666 103.569C164.381 105.431 162.551 106.847 160.43 107.622C159.962 109.447 158.982 111.937 158.514 113.772C157.087 113.452 154.616 113.154 153.192 112.836C153.132 115.425 152.148 117.906 150.419 119.828C150.16 117.198 149.431 114.637 148.264 112.268C146.433 108.608 143.637 105.523 140.179 103.347C138.955 110.76 139.627 118.364 142.131 125.446C142.732 128.448 143.573 131.396 144.644 134.263C145.291 135.994 145.982 137.592 146.684 139.052C144.451 140.011 142.065 140.561 139.639 140.673C140.04 144.266 141.237 147.722 143.142 150.791C139.046 151.834 134.876 152.838 130.631 153.804C128.838 154.215 127.053 154.613 125.277 155.001C123.115 154.579 120.807 154.036 118.385 153.34C115.014 152.371 111.709 151.184 108.491 149.787C110.981 147.249 112.401 143.847 112.457 140.287C110.116 139.717 107.863 138.833 105.757 137.66C107.652 134.439 109.322 131.09 110.757 127.639C113.668 120.638 115.576 113.259 116.423 105.722C116.221 104.199 115.667 102.744 114.806 101.473C114.24 102.328 113.351 103.634 112.187 105.18C110.108 107.933 109.276 108.652 108.413 110.279C107.517 112.004 106.993 113.898 106.875 115.839C104.96 113.646 103.967 110.795 104.102 107.883C102.215 107.857 99.9824 107.677 98.0957 107.651C98.0697 106.183 97.815 104.716 97.789 103.248C96.5217 103.088 95.3026 102.66 94.2123 101.993C93.1219 101.325 92.185 100.434 91.4633 99.3766C94.7628 99.3052 98.0073 98.5151 100.972 97.0612C103.937 95.6072 106.551 93.5241 108.634 90.9562C109.36 89.4783 109.776 87.8664 109.856 86.2206C109.936 84.5748 109.677 82.9301 109.097 81.3886C106.243 84.8954 102.561 87.6305 98.3841 89.345C98.8718 88.4141 99.1705 87.3953 99.2628 86.3477C99.3552 85.3001 99.2394 84.2446 98.9221 83.2422C98.3281 85.1583 97.4171 86.9605 96.2271 88.5734C92.6224 93.4406 87.5287 95.0308 85.6003 95.5235C86.3337 94.7577 86.8601 93.8168 87.1298 92.7899C87.3994 91.7631 87.4035 90.6841 87.1414 89.6553C86.6505 90.901 86.0312 92.0919 85.2936 93.2085C80.9873 99.7051 73.8222 101.749 70.8933 102.398C71.8089 101.644 72.545 100.695 73.0478 99.619C73.6725 98.2692 73.9127 96.7724 73.7417 95.2941C73.2359 96.6698 72.5906 97.9898 71.8159 99.2332C67.2029 106.624 59.253 109.14 55.9628 109.969C56.7109 109.212 57.3111 108.322 57.7326 107.343C58.3999 105.759 58.5879 104.013 58.2732 102.322C57.1739 104.763 53.8551 111.256 46.4146 115.222C43.3541 116.839 40.0048 117.833 36.5597 118.147C37.9371 117.284 39.0483 116.055 39.7689 114.595C40.4894 113.136 40.791 111.504 40.6399 109.883C39.0173 113.062 36.7949 115.895 34.0959 118.225C26.9984 124.328 18.8354 124.891 16 124.953C25.9245 114.176 34.7468 102.428 42.3343 89.8847C48.119 80.322 53.1652 70.3291 57.4286 59.9934C56.1499 60.7171 54.6607 60.9739 53.2145 60.72C51.7684 60.4662 50.4546 59.7175 49.4968 58.6013C51.2593 58.0019 52.9233 57.1436 54.4347 56.0543C58.702 52.9651 60.5524 48.8513 61.2879 46.8622C65.4461 38.7807 73.4272 33.6294 82.0009 33.5668C91.5387 33.5068 97.7266 39.7844 98.8649 40.9836C102.984 45.5118 109.112 46.2392 112.727 43.5331C116.004 41.0774 116.106 36.6273 116.106 35.973C116.366 34.8624 116.711 32.537 115.49 30.4124C115.324 30.1217 115.135 29.8452 114.923 29.586C113.454 30.2191 111.882 30.5778 110.284 30.6444C109.765 30.6626 108.933 30.6001 108.483 30.5662C108.418 29.9692 108.348 29.3331 108.275 28.6892C110.117 28.4252 111.924 27.9539 113.66 27.284C114.978 26.7399 116.235 26.0602 117.413 25.2558C116.361 25.4139 115.301 25.5096 114.237 25.5426C112.751 25.5894 111.264 25.5117 109.791 25.3106C109.154 25.3248 108.527 25.4731 107.951 25.7459C107.638 25.8932 107.344 26.0779 107.075 26.296C106.433 26.8179 105.948 27.5083 105.674 28.2903C105.627 28.4233 105.596 28.5328 105.575 28.611L103.553 26.004C103.504 25.7694 103.166 24.0332 104.304 22.7584C104.411 22.6378 104.528 22.5262 104.653 22.4247C104.931 22.2033 105.242 22.0274 105.575 21.9033L106.979 20.9413L112.504 17.1534C112.946 17.0817 113.398 17.1012 113.832 17.2108C114.258 17.3203 114.487 17.4715 114.583 17.3855C114.734 17.2447 113.933 16.6712 113.949 15.8786C113.966 15.577 114.073 15.2874 114.255 15.047C114.957 14.0042 116.522 13.7931 117.53 13.5428C119.695 12.9954 119.695 12.2524 121.61 11.5615C125.191 10.2763 128.729 11.5746 129.194 11.7545C131.806 12.7555 133.352 14.523 134.893 16.3114C136.234 17.8573 135.964 17.9877 137.232 19.557C140.595 23.6838 144.285 25.0134 143.932 25.9284C143.753 26.3899 142.671 26.4264 141.39 26.4707C139.34 26.5385 138.547 26.0092 138.194 26.3925C138.053 26.5437 137.562 27.2945 140.618 31.6455C144.018 36.4814 146.695 38.5017 146.125 39.5237C145.865 40.0033 145.013 40.0112 143.352 40.0268C140.829 40.0477 139.303 39.4272 139.272 39.5237C139.202 39.727 145.637 44.1562 152.285 42.6911C154.925 42.1071 155.143 41.1269 160.063 38.056C166.389 34.0934 170.679 31.4056 175.888 31.4526C181.314 31.4995 185.368 34.4923 186.899 35.6237C191.855 39.2734 191.962 42.6624 197.063 48.7549C199.869 52.0957 203.12 55.0327 206.726 57.4829C205.872 58.2906 204.825 58.8627 203.685 59.1436C200.806 59.8031 199.088 57.9157 198.256 58.4866C196.697 59.5476 199.815 68.0176 207.96 82.6243C211.687 89.3033 213.834 93.1512 217.508 98.498C223.246 106.835 229.773 114.595 237 121.671Z" fill="#ECC091"/>
<path d="M170.401 121.484L169.102 122.858C168.936 122.825 168.766 122.815 168.598 122.827C168.281 122.851 167.974 122.953 167.706 123.124L165.999 121.651C166.243 122.41 166.599 123.44 166.844 124.201C166.837 124.212 166.832 124.224 166.831 124.237C166.538 124.325 166.261 124.458 166.009 124.631V124.615C165.401 124.107 164.637 123.492 164.026 122.983C164.354 123.909 164.926 125.126 165.253 126.054C165.272 126.349 165.326 126.641 165.414 126.923C165.503 127.271 165.628 127.609 165.786 127.931C165.726 127.856 164.991 127.058 164.346 127.097C164.272 127.101 164.199 127.114 164.128 127.134L162.449 125.765L163.156 128.111C163.123 128.196 163.096 128.283 163.075 128.372C162.017 126.993 161.542 125.275 161.583 124.529C161.617 123.901 161.802 123.612 161.815 122.947C161.793 121.916 161.427 120.923 160.775 120.126L155.577 115.144L153.189 112.866C154.618 113.184 157.087 113.481 158.512 113.802C158.979 111.977 159.959 109.485 160.427 107.652C160.648 108.004 163.727 112.947 165.973 116.072C166.36 116.615 167.184 117.733 168.205 117.694L168.59 120.59C169.151 120.969 169.76 121.27 170.401 121.484Z" fill="#913252"/>
<path d="M179.825 118.698C178.991 119.48 177.889 120.301 177.055 121.073L173.51 117.811C173.697 117.771 173.871 117.681 174.011 117.551C175.03 116.662 176.893 114.422 177.208 114.036L179.825 118.698Z" fill="#8DA092"/>
<path d="M106.979 20.9292L105.575 21.8912C105.242 22.0153 104.931 22.1912 104.653 22.4126C104.447 20.7389 104.182 18.6273 103.977 16.9536C104.025 16.6681 104.163 16.4056 104.371 16.2048C104.579 16.004 104.846 15.8756 105.132 15.8385C105.418 15.8014 105.709 15.8576 105.961 15.9988C106.213 16.1399 106.413 16.3586 106.532 16.6225C106.68 17.9964 106.83 19.571 106.979 20.9292Z" fill="#8DA092"/>
<path d="M108.481 30.554C108.223 31.7706 107.963 32.9811 107.701 34.1855L106.085 31.0937C105.968 30.3351 105.781 29.042 105.664 28.2834C105.938 27.5014 106.422 26.811 107.064 26.2891C107.333 26.071 107.627 25.8863 107.94 25.739L108.262 28.6797C108.346 29.3314 108.416 29.9675 108.481 30.554Z" fill="#8DA092"/>
<path d="M82.4141 120.843L80.5092 122.754C80.6252 121.942 80.7405 121.132 80.8548 120.322C81.0253 120.503 81.2291 120.65 81.4551 120.755C81.763 120.861 82.092 120.892 82.4141 120.843Z" fill="#414042"/>
<path d="M92.8927 116.536C92.8324 116.46 92.7664 116.389 92.6952 116.323C92.4731 116.129 92.2122 115.986 91.9301 115.903C91.6481 115.82 91.3515 115.799 91.0605 115.84V115.822C91.4347 115.186 91.9129 114.334 92.2846 113.698C92.4743 114.568 92.7004 115.663 92.8927 116.536Z" fill="#414042"/>
<path d="M89.301 117.126C89.2349 117.258 89.1818 117.397 89.1425 117.54C88.3175 117.626 87.4983 117.761 86.6892 117.944C86.0083 118.101 85.1299 118.374 84.5529 118.562C84.7365 117.949 84.7756 117.302 84.6673 116.672C85.7126 116.543 86.7174 116.187 87.6118 115.629L87.8067 115.504L89.301 117.126Z" fill="#8DA092"/>
<path d="M93.293 118.174C93.2481 118.615 93.0664 119.032 92.7732 119.365C92.1781 120.001 91.3127 119.772 90.3485 119.915C89.127 120.095 87.4585 120.916 85.6705 123.883C85.016 124.027 84.3472 124.095 83.6772 124.086H83.2926C82.1309 124.055 81.8216 123.951 81.6579 123.826C81.1797 123.492 80.9068 122.751 80.8262 122.428L82.4063 120.843C83.0207 120.604 83.5594 120.203 83.9657 119.683C84.224 119.347 84.4203 118.967 84.5452 118.562C85.1144 118.374 86.0006 118.101 86.6815 117.944C87.4906 117.761 88.3098 117.626 89.1348 117.54C89.1741 117.397 89.2272 117.258 89.2933 117.126C89.4188 116.853 89.5972 116.609 89.8181 116.406C90.039 116.204 90.298 116.048 90.5798 115.947C90.733 115.894 90.8917 115.858 91.0528 115.84C91.3438 115.799 91.6404 115.82 91.9224 115.903C92.2045 115.986 92.4654 116.129 92.6875 116.323C92.7586 116.389 92.8247 116.46 92.885 116.536C93.0579 116.769 93.1831 117.033 93.2532 117.314C93.3232 117.595 93.3368 117.887 93.293 118.174Z" fill="#913252"/>
<path d="M94.9874 118.752C94.8782 118.522 94.6979 118.333 94.4732 118.213C94.2486 118.093 93.9915 118.049 93.74 118.088C93.9245 117.527 94.161 116.823 94.3455 116.263C94.582 117.066 94.7458 117.939 94.9874 118.752Z" fill="#414042"/>
<path d="M95.2655 120.204C95.2203 120.608 95.0657 120.991 94.8185 121.312C94.6194 121.578 94.3747 121.806 94.096 121.985L87.079 126.302C86.921 126.364 86.7803 126.463 86.6693 126.592C86.5584 126.72 86.4804 126.874 86.4423 127.04C86.4135 127.245 86.4547 127.455 86.5593 127.634L86.4293 127.676C86.0473 127.78 84.935 128.004 84.0462 127.3C83.6921 127.014 83.427 126.633 83.2821 126.2C83.2821 125.525 83.2821 124.764 83.3003 124.086H83.6849C84.3549 124.095 85.0238 124.027 85.6783 123.883C87.4663 120.916 89.1347 120.095 90.3562 119.915C91.3204 119.772 92.1754 120.001 92.781 119.365C93.0741 119.032 93.2559 118.615 93.3007 118.174H93.3267C93.4638 118.13 93.6048 118.1 93.7477 118.085C93.9993 118.047 94.2563 118.091 94.481 118.21C94.7056 118.33 94.8859 118.519 94.9952 118.75C95.2256 119.197 95.3196 119.703 95.2655 120.204Z" fill="#913252"/>
<path d="M96.2765 121.797C96.1748 121.651 96.0427 121.528 95.8892 121.438C95.7357 121.348 95.5646 121.293 95.3876 121.276C95.5774 120.877 95.8554 120.33 96.0452 119.931C96.1439 120.546 96.1777 121.198 96.2765 121.797Z" fill="#414042"/>
<path d="M96.5441 123.549C96.435 123.986 96.2011 124.382 95.871 124.688L95.4552 125.035L92.0403 127.47C91.8506 127.587 91.6582 127.702 91.4607 127.817C90.441 128.411 89.3875 128.944 88.3057 129.415C88.0238 129.428 87.7426 129.378 87.4826 129.268C87.2226 129.158 86.9906 128.991 86.8036 128.779C86.579 128.453 86.4494 128.071 86.4293 127.676L86.5593 127.634C86.4547 127.455 86.4135 127.246 86.4423 127.04C86.4804 126.874 86.5584 126.72 86.6693 126.592C86.7803 126.463 86.921 126.364 87.079 126.302L94.096 121.985C94.3747 121.806 94.6194 121.578 94.8185 121.312C95.0059 121.276 95.1978 121.268 95.3876 121.289C95.5646 121.306 95.7357 121.362 95.8892 121.452C96.0427 121.542 96.1748 121.664 96.2764 121.81C96.4102 121.99 96.4993 122.199 96.5363 122.42C96.5692 122.547 96.5918 122.676 96.6039 122.806C96.6249 123.055 96.6047 123.306 96.5441 123.549Z" fill="#913252"/>
<path d="M95.4552 125.035C94.3738 125.924 93.2328 126.738 92.0403 127.47L95.4552 125.035Z" fill="#6A3E00"/>
<path d="M177.985 124.459L177.938 124.493C177.661 124.648 177.35 124.732 177.032 124.738C176.715 124.743 176.401 124.67 176.119 124.524C175.694 124.329 175.326 124.027 175.051 123.648C175.009 123.596 174.973 123.541 174.936 123.487L174.32 121.711C173.338 121.917 172.325 121.924 171.34 121.731C170.355 121.539 169.418 121.151 168.585 120.59L168.2 117.694C168.6 117.678 168.668 117.498 169.546 117.23C170.191 117.034 170.939 116.805 171.703 116.922C172.605 117.058 172.85 117.934 173.523 117.811C173.783 118.095 174.17 118.593 174.466 118.872C174.895 119.295 175.347 119.709 175.789 120.087C176.197 120.438 176.624 120.767 177.067 121.073C177.182 121.057 177.78 120.833 178.26 121.286C178.51 121.548 178.659 121.889 178.681 122.251C178.754 122.84 178.707 123.948 177.985 124.459Z" fill="#913252"/>
<path d="M177.985 124.459C177.808 125.27 177.611 126.187 177.434 126.998C177.34 126.829 177.244 126.649 177.145 126.464C176.805 125.822 176.444 125.108 176.124 124.524C176.406 124.67 176.72 124.743 177.038 124.738C177.355 124.732 177.666 124.648 177.943 124.493L177.985 124.459Z" fill="#414042"/>
<path d="M167.709 123.127C167.309 123.377 167.006 123.755 166.849 124.201C166.604 123.44 166.248 122.41 166.004 121.651L167.709 123.127Z" fill="#414042"/>
<path d="M175.051 123.648C174.342 123.456 173.597 123.433 172.878 123.583C172.047 123.818 171.316 124.321 170.799 125.014C170.806 124.747 170.76 124.481 170.664 124.232C170.532 123.897 170.321 123.598 170.05 123.362C169.778 123.125 169.454 122.958 169.105 122.874L170.404 121.5C171.666 121.924 173.018 122.002 174.32 121.727L174.936 123.502C174.97 123.541 175.007 123.596 175.051 123.648Z" fill="#8DA092"/>
<path d="M177.145 126.464C177.035 126.592 176.915 126.712 176.787 126.823C176.648 126.95 176.491 127.055 176.322 127.136C175.664 127.428 175.313 127.118 174.609 127.254C173.707 127.426 173.666 128.036 172.79 128.257C172.215 128.378 171.617 128.296 171.095 128.025C170.802 127.525 170.316 126.912 169.596 126.722C168.876 126.531 168.556 126.915 167.94 126.683C167.576 126.525 167.267 126.263 167.051 125.929C166.835 125.596 166.722 125.206 166.727 124.808C166.73 124.611 166.764 124.416 166.828 124.23C166.83 124.217 166.834 124.204 166.841 124.193C166.998 123.748 167.301 123.369 167.701 123.119C167.969 122.948 168.276 122.845 168.593 122.822C168.761 122.81 168.931 122.82 169.097 122.853C169.446 122.937 169.771 123.105 170.042 123.341C170.313 123.577 170.524 123.876 170.656 124.211C170.752 124.46 170.798 124.726 170.791 124.993C171.309 124.3 172.039 123.797 172.87 123.562C173.59 123.412 174.334 123.435 175.043 123.627C175.32 124.007 175.691 124.309 176.119 124.503C176.444 125.108 176.805 125.822 177.145 126.464Z" fill="#913252"/>
<path d="M166.012 124.634C165.728 124.822 165.505 125.088 165.367 125.4C165.282 125.608 165.24 125.832 165.245 126.057C164.918 125.129 164.346 123.912 164.019 122.986C164.629 123.494 165.393 124.11 166.001 124.618L166.012 124.634Z" fill="#414042"/>
<path d="M177.283 128.528C177.143 129.832 175.862 130.432 175.802 130.458L175.571 130.562C175.18 130.73 174.773 130.858 174.357 130.942C173.612 131.126 172.836 131.138 172.085 130.979C170.664 130.619 170.75 129.675 169.411 129.318C168.247 129.011 167.917 129.655 167.005 129.222C166.465 128.94 166.034 128.487 165.778 127.934C165.62 127.611 165.495 127.273 165.406 126.925C165.319 126.643 165.264 126.352 165.245 126.057C165.24 125.832 165.282 125.608 165.367 125.4C165.505 125.088 165.728 124.822 166.012 124.634C166.263 124.46 166.541 124.327 166.833 124.24C166.769 124.426 166.735 124.622 166.732 124.819C166.727 125.216 166.84 125.606 167.056 125.94C167.272 126.273 167.582 126.535 167.945 126.693C168.561 126.925 168.907 126.56 169.601 126.732C170.295 126.904 170.807 127.514 171.1 128.036C171.622 128.307 172.22 128.389 172.795 128.268C173.663 128.057 173.705 127.436 174.614 127.264C175.318 127.128 175.669 127.439 176.327 127.147C176.496 127.066 176.653 126.96 176.792 126.834C177.133 127.331 177.306 127.925 177.283 128.528Z" fill="#913252"/>
<path d="M164.12 127.134C163.894 127.211 163.69 127.339 163.521 127.508C163.353 127.677 163.225 127.882 163.148 128.109L162.441 125.762L164.12 127.134Z" fill="#414042"/>
<path d="M175.571 130.562C175.495 130.906 175.222 132.126 174.243 132.892C172.709 134.099 170.83 133.526 170.661 133.471C170.205 132.979 169.656 132.582 169.047 132.304C168.437 132.026 167.778 131.871 167.109 131.85C166.693 131.835 166.28 131.771 165.879 131.659L163.616 129.185L163.031 128.544C163.037 128.489 163.046 128.434 163.06 128.38C163.08 128.291 163.107 128.204 163.14 128.119C163.217 127.893 163.345 127.687 163.513 127.518C163.682 127.349 163.887 127.221 164.112 127.144C164.183 127.124 164.257 127.112 164.33 127.108C164.975 127.068 165.71 127.866 165.77 127.942C166.026 128.495 166.457 128.948 166.997 129.23C167.909 129.662 168.239 129.018 169.403 129.326C170.742 129.681 170.656 130.63 172.078 130.987C172.828 131.146 173.604 131.133 174.349 130.95C174.769 130.864 175.178 130.733 175.571 130.562Z" fill="#913252"/>
<path d="M165.877 131.659C165.2 131.477 164.581 131.123 164.078 130.632C163.761 130.319 162.935 129.501 163.039 128.547L163.624 129.188L165.877 131.659Z" fill="#913252"/>
</svg>
