<svg width="230" height="143" viewBox="0 0 230 143" fill="none" xmlns="http://www.w3.org/2000/svg">
<path d="M229.855 110.03C225.07 110.543 221.599 109.544 219.768 108.851C215.942 107.402 213.482 105.106 210.519 102.343C208.649 100.601 206.93 98.7179 205.376 96.7131C205.827 98.1024 206.528 99.4061 207.448 100.566C209.173 102.723 211 103.483 210.836 103.838C210.589 104.379 205.949 103.517 202.025 101.593C199.065 100.147 193.715 96.7131 189.745 88.2763C189.601 89.2915 189.655 90.3233 189.904 91.3197C190.889 95.1336 194.578 96.9032 194.25 97.4451C193.922 97.987 190.38 97.0599 186.515 94.8974C183.173 93.0251 178.173 89.3858 173.797 82.0354C173.854 83.4571 174.206 84.8537 174.833 86.1447C176.216 88.9364 178.401 89.9971 178.183 90.331C177.844 90.86 171.964 89.0982 167.179 84.8143C164.523 82.4093 162.442 79.4861 161.078 76.2439C160.846 77.6435 160.955 79.0752 161.398 80.4277C162.324 83.1603 164.423 84.5241 164.189 84.7938C163.904 85.1353 160.494 83.4326 157.011 80.646C153.491 77.806 150.51 74.408 148.2 70.6014C148.297 72.0139 148.634 73.4018 149.199 74.7107C150.208 77.035 151.548 78.1316 151.271 78.4398C150.994 78.748 149.476 77.7875 144.772 75.0523C141.114 72.936 140.121 72.4198 138.983 71.0817C138.013 69.9068 137.292 68.5624 136.862 67.124C136.851 67.1227 136.84 67.1227 136.83 67.124C135.78 67.2113 134.023 74.1816 136.111 79.7086C138.547 86.1575 145.617 89.0956 148.391 90.2385C150.805 91.2388 153.356 91.9055 155.967 92.2187C154.64 94.0533 152.749 95.4503 150.555 96.2175C150.784 96.5642 153.973 101.434 156.298 104.513C156.699 105.047 157.552 106.149 158.61 106.11L159.008 108.964C159.592 109.337 160.225 109.634 160.892 109.845L159.547 111.198C159.375 111.166 159.199 111.155 159.024 111.167C158.696 111.191 158.379 111.291 158.101 111.46L156.333 110.009C156.586 110.757 156.955 111.771 157.208 112.521C157.201 112.532 157.196 112.544 157.194 112.557C156.891 112.643 156.604 112.774 156.344 112.945V112.929C155.714 112.428 154.923 111.822 154.291 111.322C154.63 112.233 155.222 113.433 155.561 114.347C155.581 114.637 155.637 114.924 155.728 115.202C155.82 115.545 155.949 115.878 156.113 116.196C156.051 116.122 155.289 115.336 154.622 115.374C154.545 115.378 154.469 115.39 154.395 115.41L152.657 114.062L153.389 116.373C153.355 116.457 153.327 116.543 153.306 116.63C152.21 115.272 151.718 113.579 151.761 112.845C151.796 112.226 151.987 111.94 152 111.286C151.978 110.27 151.598 109.292 150.924 108.507L145.541 103.599L143.068 101.354C143.006 103.904 141.987 106.348 140.196 108.242C139.929 105.651 139.173 103.128 137.965 100.794C136.069 97.1889 133.174 94.1491 129.593 92.0055C128.33 99.3073 129.029 106.795 131.625 113.769C132.241 116.723 133.104 119.625 134.206 122.447C134.876 124.153 135.592 125.727 136.318 127.165C134.006 128.106 131.536 128.643 129.025 128.75C129.441 132.289 130.68 135.695 132.653 138.717C128.412 139.745 124.093 140.734 119.697 141.686C117.84 142.09 115.992 142.483 114.153 142.865C111.914 142.449 109.524 141.915 107.016 141.229C103.525 140.274 100.103 139.105 96.7706 137.729C99.3485 135.228 100.819 131.877 100.877 128.37C98.4529 127.809 96.1184 126.94 93.9367 125.786C95.8986 122.613 97.6287 119.314 99.1146 115.914C102.129 109.017 104.104 101.748 104.982 94.3221C104.772 92.8215 104.199 91.3881 103.308 90.1358C102.721 90.9782 101.801 92.2649 100.595 93.7879C98.4418 96.5 97.5806 97.2088 96.6871 98.8114C95.7595 100.511 95.2166 102.377 95.0939 104.29C93.1117 102.129 92.0826 99.3199 92.2224 96.4512C90.1212 99.5743 87.4147 102.286 84.2482 104.441C84.7084 105.53 85.0556 106.467 85.2844 107.181C85.7526 108.576 85.8226 109.038 85.6853 109.539C85.4843 110.191 85.0561 110.757 84.4716 111.144C84.4591 111.016 84.4357 110.889 84.4016 110.764C84.3633 110.546 84.271 110.34 84.1325 110.163C84.0302 109.57 83.9952 108.928 83.893 108.335C83.6965 108.728 83.4086 109.267 83.2121 109.66C83.0155 109.639 82.8168 109.647 82.6227 109.683C82.8787 109.366 83.0388 108.989 83.0856 108.591C83.1381 108.099 83.038 107.602 82.7976 107.163C82.5554 106.362 82.3778 105.502 82.1329 104.698C81.9418 105.253 81.6969 105.946 81.5058 106.496C81.3578 106.511 81.2118 106.54 81.0699 106.583H81.043C81.0894 106.301 81.0767 106.014 81.0055 105.737C80.9344 105.46 80.8062 105.199 80.6285 104.97C80.4294 104.11 80.1952 103.031 79.9961 102.173C79.6112 102.8 79.116 103.64 78.7285 104.266V104.284C78.5616 104.302 78.3974 104.337 78.2387 104.39C77.9444 104.487 77.6737 104.641 77.4425 104.84C77.2114 105.039 77.0245 105.281 76.8931 105.551L75.359 103.956C76.242 103.393 76.9889 102.656 77.5497 101.796L78.6128 99.867C78.7312 99.9261 78.8307 99.9826 78.9061 100.026C80.8044 97.0525 83.0855 94.3174 85.6961 91.8848C84.3866 91.727 83.1268 91.3064 81.9997 90.6509C80.8726 89.9953 79.9036 89.1196 79.1564 88.0812C82.5731 88.0108 85.9329 87.2325 89.0032 85.8001C92.0734 84.3677 94.7807 82.3155 96.9374 79.7856C97.6912 78.3283 98.1227 76.7385 98.2051 75.1152C98.2875 73.4919 98.0191 71.8698 97.4165 70.3497C94.4645 73.8031 90.6549 76.4976 86.3339 78.1881C86.839 77.271 87.1483 76.2673 87.2439 75.2352C87.3395 74.2032 87.2196 73.1633 86.891 72.1758C86.2696 74.0629 85.3198 75.8366 84.0814 77.4228C80.3486 82.2178 75.0738 83.7844 73.0769 84.2698C73.8363 83.5154 74.3814 82.5884 74.6607 81.5768C74.94 80.5651 74.9441 79.5022 74.6728 78.4886C74.1704 79.7151 73.5355 80.8883 72.7781 81.9892C68.3188 88.3893 60.899 90.4029 57.866 91.0424C58.8141 90.2998 59.5763 89.3644 60.097 88.3046C60.744 86.9748 60.9927 85.5001 60.8156 84.0438C60.2919 85.3991 59.6236 86.6995 58.8214 87.9245C54.0444 95.2056 45.8119 97.684 42.4048 98.5007C43.1794 97.7552 43.801 96.8781 44.2375 95.9144C44.9258 94.3529 45.1176 92.6327 44.7892 90.9679C43.6508 93.3718 40.2141 99.7694 32.5091 103.676C29.3365 105.275 25.8634 106.257 22.2904 106.568C23.7168 105.718 24.8675 104.507 25.6137 103.069C26.3599 101.631 26.6722 100.024 26.5157 98.4262C24.8354 101.558 22.534 104.349 19.7391 106.645C12.3893 112.647 3.93615 113.201 1 113.263C11.2773 102.646 20.4131 91.0717 28.2704 78.7146C34.2607 69.2938 39.4862 59.4491 43.9011 49.2667C42.577 49.9796 41.0349 50.2326 39.5373 49.9826C38.0397 49.7325 36.6792 48.9949 35.6874 47.8953C37.5125 47.3048 39.2358 46.4592 40.8008 45.3861C45.2198 42.3426 47.136 38.2899 47.8976 36.3303C52.2036 28.3686 60.4684 23.2937 69.3468 23.2321C79.2237 23.173 85.6315 29.3574 86.8103 30.5388C91.0759 34.9999 97.4219 35.7165 101.165 33.0506C104.559 30.6313 104.664 26.2472 104.664 25.6026C104.933 24.5085 105.291 22.2176 104.026 20.1244C103.855 19.838 103.658 19.5657 103.439 19.3103C101.918 19.934 100.29 20.2874 98.6356 20.353C98.0974 20.371 97.2362 20.3094 96.7706 20.276C96.7033 19.6878 96.6306 19.0612 96.5553 18.4268C98.4626 18.1668 100.333 17.7024 102.132 17.0425C103.496 16.5065 104.798 15.8369 106.018 15.0444C104.928 15.2009 103.83 15.2961 102.729 15.3295C101.19 15.373 99.6496 15.2939 98.1243 15.0932C97.4647 15.1072 96.8155 15.2533 96.2189 15.5221C95.8948 15.6672 95.5903 15.8491 95.3119 16.064C94.6472 16.5782 94.1451 17.2583 93.8613 18.0287C93.8129 18.1597 93.7806 18.2676 93.7591 18.3446L91.6653 15.7763C91.6142 15.5452 91.2643 13.8347 92.4431 12.5788C92.5545 12.4663 92.6751 12.3624 92.8037 12.2681C93.0935 12.0409 93.4197 11.8596 93.7698 11.7313L95.2231 10.7836L100.945 7.0519C101.402 6.98117 101.87 7.0004 102.32 7.1084C102.761 7.21627 102.998 7.36523 103.098 7.28047C103.254 7.14179 102.425 6.57676 102.441 5.79601C102.459 5.49883 102.57 5.21355 102.759 4.97672C103.485 3.96225 105.105 3.74138 106.15 3.49483C108.381 2.96576 108.381 2.2338 110.375 1.55321C114.083 0.287045 117.746 1.56605 118.228 1.74326C120.933 2.72948 122.534 4.47077 124.13 6.23261C125.518 7.7556 125.239 7.88402 126.552 9.43012C130.034 13.4957 133.869 14.8055 133.49 15.707C133.304 16.1616 132.185 16.1975 130.858 16.2412C128.734 16.308 127.914 15.7866 127.548 16.1642C127.402 16.3131 126.894 17.0528 130.059 21.3392C133.579 26.1034 136.351 28.0938 135.761 29.1006C135.492 29.5732 134.609 29.5809 132.89 29.5963C130.277 29.6168 128.697 29.0056 128.665 29.1006C128.592 29.3009 135.255 33.6644 142.14 32.221C144.874 31.6458 145.1 30.6801 150.194 27.6546C156.745 23.7509 161.188 21.103 166.581 21.1492C172.201 21.1954 176.399 24.1438 177.984 25.2584C183.116 28.854 183.227 32.1928 188.51 38.1949C191.415 41.4861 194.782 44.3795 198.516 46.7935C197.632 47.5892 196.547 48.1528 195.367 48.4295C192.385 49.0792 190.606 47.2198 189.745 47.7823C188.13 48.8275 191.36 57.1719 199.794 71.562C203.653 78.1419 205.876 81.9327 209.682 87.2002C215.619 95.4128 222.375 103.058 229.855 110.03Z" fill="#414042" stroke="#231F20" stroke-width="0.25" stroke-miterlimit="10"/>
</svg>
