<svg width="404" height="100" viewBox="0 0 404 100" fill="none" xmlns="http://www.w3.org/2000/svg">
<path d="M136.322 47.35C134.853 48.1446 133.22 48.5866 131.551 48.641C131.103 48.6456 130.656 48.6082 130.215 48.529L127.622 55.439C128.769 55.637 129.934 55.7178 131.097 55.68C133.686 55.6553 136.241 55.0874 138.597 54.013L136.322 47.35ZM134.234 24.712L136.766 17.971H126.253V7.14304L118.378 7.97403V17.974H111.178V24.715H118.378V42.509C118.378 46.8984 119.476 50.2177 121.673 52.467C122.163 52.971 122.709 53.4172 123.301 53.797L126.523 45.226C126.277 44.3418 126.16 43.4267 126.175 42.509V24.712H134.234Z" fill="#ECC091"/>
<path d="M161.234 17.062C156.123 16.8949 151.153 18.76 147.414 22.249C143.754 25.707 141.924 30.465 141.924 36.523C141.924 42.731 143.716 47.577 147.301 51.061C147.66 51.409 148.031 51.7404 148.412 52.055L150.876 45.493L151.6 43.573C150.303 41.4552 149.649 39.0057 149.72 36.523C149.644 34.8676 149.915 33.2146 150.516 31.6699C151.116 30.1253 152.032 28.723 153.206 27.553C154.739 26.0422 156.664 24.9902 158.763 24.516L159.453 22.68L161.564 17.067C161.459 17.062 161.347 17.062 161.234 17.062ZM174.184 17.898L173.954 23.803C172.738 21.6804 170.919 19.9669 168.728 18.88C167.924 18.4582 167.084 18.1069 166.219 17.83L163.783 24.308C165.179 24.4784 166.534 24.8966 167.783 25.543C169.401 26.3391 170.764 27.5719 171.718 29.102C172.62 30.6056 173.285 32.2395 173.688 33.946C174.115 35.6751 174.115 37.4819 173.688 39.211C173.281 40.9058 172.616 42.5282 171.718 44.022C170.764 45.5521 169.401 46.7849 167.783 47.581C165.942 48.5132 163.902 48.9815 161.839 48.945C159.497 48.9927 157.192 48.359 155.204 47.121L152.414 54.547C155.149 55.7219 158.106 56.2906 161.081 56.214C163.675 56.1968 166.23 55.5739 168.541 54.395C170.871 53.2962 172.773 51.4592 173.952 49.169L174.334 55.226H181.755V17.898H174.184Z" fill="#ECC091"/>
<path d="M226.09 22.66C224.326 20.8514 222.208 19.4271 219.867 18.4767C217.527 17.5262 215.015 17.0701 212.49 17.1371C212.181 17.1371 211.873 17.143 211.564 17.165H211.558L210.491 20.0001L208.591 25.057C209.62 24.8172 210.673 24.7004 211.729 24.709C213.305 24.6408 214.878 24.8976 216.351 25.4634C217.824 26.0292 219.164 26.892 220.289 27.998C221.383 29.1383 222.235 30.4878 222.795 31.9656C223.354 33.4435 223.61 35.0192 223.545 36.598C223.612 38.1703 223.353 39.7395 222.784 41.2069C222.216 42.6743 221.35 44.0083 220.241 45.1251C219.132 46.2419 217.805 47.1173 216.341 47.6963C214.878 48.2754 213.311 48.5457 211.738 48.49C210.178 48.534 208.627 48.254 207.181 47.6675C205.735 47.0811 204.426 46.201 203.338 45.083C202.758 44.4941 202.242 43.8447 201.8 43.1461L199.313 49.77L195.507 59.891L191.522 58.391V72.57H199.322V49.77C200.652 51.9063 202.628 53.5636 204.963 54.502C207.343 55.5258 209.906 56.0549 212.496 56.057C218.199 56.057 222.768 54.2384 226.203 50.601C229.638 46.9637 231.353 42.297 231.35 36.601C231.349 30.943 229.596 26.296 226.09 22.66ZM204.962 18.916C202.645 20.0293 200.689 21.7747 199.321 23.951L198.866 17.894H191.518V57.3491L200.179 34.312V34.3061C200.42 32.7261 200.987 31.2139 201.846 29.8661L201.857 29.8491L206.168 18.3701C205.764 18.5381 205.36 18.723 204.962 18.919V18.916Z" fill="#ECC091"/>
<path d="M241.834 22.663C238.588 26.2934 236.707 30.9398 236.512 35.8055C236.318 40.6712 237.822 45.453 240.767 49.331L242.967 43.482V43.476L244.539 39.305C244.374 38.4125 244.294 37.5066 244.298 36.599C244.21 33.4036 245.331 30.2926 247.436 27.887C248.046 27.194 248.744 26.5844 249.513 26.074L250.776 22.717L252.802 17.317C248.628 17.7435 244.741 19.638 241.834 22.663ZM269.698 22.702C266.546 19.4535 262.294 17.4998 257.776 17.224L255.099 24.342C255.307 24.336 255.52 24.331 255.733 24.331C257.288 24.2926 258.832 24.5949 260.257 25.2169C261.683 25.8388 262.955 26.7652 263.984 27.931C266.064 30.3278 267.219 33.3896 267.24 36.5633C267.26 39.7371 266.145 42.8135 264.096 45.237C263.04 46.3922 261.744 47.3023 260.299 47.9035C258.855 48.5047 257.296 48.7823 255.732 48.717C254.173 48.7859 252.618 48.5097 251.178 47.9082C249.738 47.3066 248.449 46.3945 247.402 45.237L247.29 45.108L244.422 52.736C247.762 54.9709 251.716 56.1071 255.733 55.986C261.537 55.986 266.218 54.156 269.777 50.496C273.226 46.6854 275.13 41.725 275.115 36.5852C275.1 31.4454 273.169 26.496 269.698 22.705V22.702Z" fill="#ECC091"/>
<path d="M300.19 17.168L297.765 23.612C300.956 23.7081 304.01 24.929 306.387 27.059L310.777 21.912C307.811 19.2933 304.119 17.6387 300.19 17.168ZM285.601 19.75C284.101 20.5935 282.865 21.8366 282.029 23.341C281.194 24.8453 280.792 26.552 280.869 28.271C280.903 32.5877 283.143 35.6807 287.588 37.55L290.103 30.865C289.643 30.5505 289.265 30.1298 289.003 29.6383C288.74 29.1469 288.599 28.5993 288.593 28.042C288.588 27.3323 288.789 26.6363 289.171 26.0385C289.554 25.4406 290.101 24.9667 290.748 24.674C291.367 24.346 292.025 24.0989 292.707 23.939L295.34 16.934C291.908 17.0339 288.557 18.0028 285.601 19.75ZM311.118 38.795C310.186 37.2276 308.781 35.9958 307.105 35.276C305.529 34.545 303.878 33.9861 302.182 33.609C300.369 33.2372 298.536 32.9701 296.692 32.809C295.872 32.73 295.115 32.629 294.424 32.5L292.024 38.882C293.368 39.148 294.724 39.3446 296.088 39.471C298.35 39.6031 300.569 40.1431 302.639 41.065C303.308 41.3744 303.867 41.8813 304.239 42.5176C304.611 43.1539 304.78 43.889 304.722 44.624C304.708 45.3973 304.473 46.1503 304.044 46.794C303.615 47.4377 303.011 47.9451 302.303 48.256C300.584 49.0983 298.688 49.5141 296.774 49.468C293.99 49.4698 291.238 48.8683 288.708 47.705L286.216 54.334C289.501 55.7423 293.049 56.4331 296.623 56.36C301.417 56.36 305.253 55.2747 308.13 53.104C309.498 52.1361 310.612 50.8527 311.378 49.3625C312.144 47.8724 312.539 46.2195 312.53 44.544C312.593 42.5347 312.105 40.5465 311.118 38.795ZM283.669 43.942L279.577 49.471C280.368 50.3632 281.238 51.1822 282.177 51.918L284.765 45.047C284.381 44.6987 284.015 44.3302 283.67 43.943L283.669 43.942Z" fill="#ECC091"/>
<path d="M351.438 22.664C350.464 21.5873 349.352 20.6435 348.132 19.857L345.78 26.116L345.511 26.829C347.112 28.449 348.041 30.6146 348.111 32.891H343.233L340.758 39.475H355.604C356.311 32.105 354.922 26.5014 351.438 22.664ZM348.338 44.853C347.021 46.1946 345.397 47.1946 343.606 47.766C341.652 48.4846 339.588 48.8569 337.506 48.866C337.406 48.866 337.315 48.866 337.225 48.86L334.542 55.994C335.476 56.0899 336.415 56.1367 337.354 56.134C340.398 56.1321 343.416 55.5669 346.254 54.467C348.973 53.4813 351.423 51.8743 353.411 49.774L348.338 44.853ZM329.523 26.223C331.707 24.6324 334.355 23.8077 337.056 23.877C338.545 23.8575 340.029 24.0638 341.456 24.489L343.926 17.91C341.624 17.2171 339.23 16.8799 336.826 16.91C331.016 16.91 326.295 18.7267 322.664 22.36C319.033 25.9934 317.216 30.6637 317.214 36.371C317.214 42.377 319.044 47.1727 322.704 50.758C324.743 52.7549 327.229 54.2365 329.956 55.08L332.572 48.12C331.329 47.7147 330.167 47.0954 329.137 46.29C328.069 45.4747 327.179 44.4497 326.522 43.2779C325.864 42.1062 325.453 40.8124 325.314 39.476H335.814L338.289 32.892H325.465C325.932 30.2393 327.379 27.8589 329.518 26.222L329.523 26.223Z" fill="#ECC091"/>
<path d="M379.38 17.0591C373.773 17.0591 369.217 18.7637 365.712 22.173C362.207 25.5824 360.452 30.3647 360.447 36.5201C360.447 42.5261 362.239 47.271 365.824 50.755C367.622 52.521 369.777 53.8818 372.144 54.746L374.821 47.6281C373.63 47.0717 372.546 46.312 371.616 45.3831C370.478 44.215 369.591 42.8257 369.012 41.3011C368.433 39.7766 368.173 38.1492 368.248 36.5201C368.142 34.9277 368.372 33.3308 368.924 31.8334C369.476 30.3359 370.337 28.9715 371.451 27.8288C372.565 26.6861 373.907 25.7909 375.39 25.2014C376.873 24.6118 378.463 24.3412 380.058 24.407C381.182 24.3985 382.302 24.5439 383.387 24.8391L385.559 19.052L385.817 18.3671C383.775 17.5227 381.59 17.0786 379.38 17.0591ZM392.48 2.29605V5.27704L395.287 6.33205L392.48 13.798V23.722C391.817 22.552 390.939 21.5178 389.892 20.674L387.534 26.95C387.872 27.2211 388.196 27.5095 388.505 27.8141C390.72 30.1876 391.952 33.3131 391.952 36.5595C391.952 39.806 390.72 42.9315 388.505 45.3051C387.403 46.4161 386.086 47.2911 384.634 47.8768C383.183 48.4626 381.628 48.7467 380.063 48.712C379.827 48.712 379.591 48.706 379.363 48.695L376.686 55.813C377.632 55.9267 378.584 55.9828 379.537 55.981C385.442 55.981 389.757 53.7601 392.481 49.3181L392.936 55.2231H400.284V2.29904L392.48 2.29605Z" fill="#ECC091"/>
<path d="M185.59 65.919H1" stroke="#ECC091" stroke-width="0.673" stroke-linecap="round" stroke-linejoin="round"/>
<path d="M403.13 65.919H207.078" stroke="#ECC091" stroke-width="0.693" stroke-linecap="round" stroke-linejoin="round"/>
<path d="M70.158 93.436V77.0845H74.7737C76.1962 77.0845 77.454 77.3989 78.5471 78.0278C79.6402 78.6567 80.4825 79.5514 81.074 80.7119C81.6729 81.8724 81.9762 83.2051 81.9836 84.71V85.7544C81.9836 87.2967 81.6842 88.6481 81.0852 89.8086C80.4937 90.9691 79.644 91.86 78.5359 92.4814C77.4353 93.1029 76.1513 93.4211 74.6838 93.436H70.158ZM72.3142 78.8589V91.6729H74.5828C76.2449 91.6729 77.5364 91.1562 78.4573 90.123C79.3857 89.0898 79.8499 87.6187 79.8499 85.7095V84.7549C79.8499 82.8981 79.4119 81.4569 78.5359 80.4312C77.6674 79.3979 76.432 78.8739 74.8298 78.8589H72.3142ZM89.9685 93.6606C88.3214 93.6606 86.9812 93.1216 85.948 92.0435C84.9148 90.9578 84.3982 89.5091 84.3982 87.6973V87.3154C84.3982 86.11 84.6265 85.0356 85.0833 84.0923C85.5474 83.1414 86.1913 82.4002 87.0149 81.8687C87.8459 81.3296 88.7444 81.0601 89.7102 81.0601C91.29 81.0601 92.5178 81.5804 93.3938 82.6211C94.2698 83.6618 94.7078 85.1517 94.7078 87.0908V87.9556H86.4758C86.5058 89.1535 86.8539 90.123 87.5203 90.8643C88.1941 91.598 89.0476 91.9648 90.0808 91.9648C90.8145 91.9648 91.436 91.8151 91.9451 91.5156C92.4542 91.2161 92.8997 90.8193 93.2815 90.3252L94.5505 91.3135C93.5323 92.8783 92.005 93.6606 89.9685 93.6606ZM89.7102 82.7671C88.8717 82.7671 88.1679 83.0741 87.5989 83.688C87.0299 84.2944 86.678 85.1479 86.5432 86.2485H92.6301V86.0913C92.5702 85.0356 92.2857 84.2196 91.7766 83.6431C91.2675 83.0591 90.5787 82.7671 89.7102 82.7671ZM104.198 90.2129C104.198 89.6514 103.984 89.2171 103.557 88.9102C103.138 88.5957 102.401 88.3262 101.345 88.1016C100.297 87.877 99.462 87.6074 98.8406 87.293C98.2266 86.9785 97.7699 86.6042 97.4705 86.1699C97.1785 85.7357 97.0325 85.2191 97.0325 84.6201C97.0325 83.6243 97.4517 82.7821 98.2903 82.0933C99.1363 81.4045 100.214 81.0601 101.525 81.0601C102.902 81.0601 104.018 81.4157 104.871 82.127C105.732 82.8382 106.163 83.7479 106.163 84.856H104.074C104.074 84.2869 103.831 83.7965 103.344 83.3848C102.865 82.973 102.258 82.7671 101.525 82.7671C100.768 82.7671 100.177 82.9318 99.7502 83.2612C99.3235 83.5907 99.1101 84.0212 99.1101 84.5527C99.1101 85.0544 99.3085 85.4325 99.7053 85.687C100.102 85.9416 100.817 86.1849 101.85 86.417C102.891 86.6491 103.733 86.9261 104.377 87.248C105.021 87.57 105.497 87.9593 105.803 88.416C106.118 88.8652 106.275 89.4155 106.275 90.0669C106.275 91.1525 105.841 92.0247 104.972 92.6836C104.104 93.335 102.977 93.6606 101.592 93.6606C100.619 93.6606 99.7577 93.4884 99.009 93.144C98.2603 92.7996 97.6726 92.3205 97.2458 91.7065C96.8266 91.0851 96.6169 90.415 96.6169 89.6963H98.6946C98.732 90.3926 99.009 90.9466 99.5256 91.3584C100.05 91.7627 100.739 91.9648 101.592 91.9648C102.378 91.9648 103.007 91.8076 103.479 91.4932C103.958 91.1712 104.198 90.7445 104.198 90.2129ZM111.239 93.436H109.161V81.2847H111.239V93.436ZM108.993 78.0615C108.993 77.7246 109.094 77.4401 109.296 77.208C109.506 76.9759 109.813 76.8599 110.217 76.8599C110.621 76.8599 110.928 76.9759 111.138 77.208C111.348 77.4401 111.452 77.7246 111.452 78.0615C111.452 78.3984 111.348 78.6792 111.138 78.9038C110.928 79.1284 110.621 79.2407 110.217 79.2407C109.813 79.2407 109.506 79.1284 109.296 78.9038C109.094 78.6792 108.993 78.3984 108.993 78.0615ZM114.08 87.2593C114.08 85.3651 114.518 83.8602 115.394 82.7446C116.27 81.6216 117.431 81.0601 118.876 81.0601C120.358 81.0601 121.515 81.5841 122.346 82.6323L122.447 81.2847H124.345V93.144C124.345 94.7163 123.877 95.9554 122.941 96.8613C122.013 97.7673 120.762 98.2202 119.19 98.2202C118.314 98.2202 117.457 98.033 116.618 97.6587C115.78 97.2843 115.14 96.7715 114.698 96.1201L115.776 94.8735C116.667 95.9741 117.756 96.5244 119.044 96.5244C120.055 96.5244 120.841 96.2399 121.403 95.6709C121.972 95.1019 122.256 94.3008 122.256 93.2676V92.2231C121.425 93.1815 120.291 93.6606 118.853 93.6606C117.431 93.6606 116.278 93.0879 115.394 91.9424C114.518 90.7969 114.08 89.2358 114.08 87.2593ZM116.169 87.4951C116.169 88.8652 116.45 89.9434 117.011 90.7295C117.573 91.5081 118.359 91.8975 119.37 91.8975C120.68 91.8975 121.642 91.3022 122.256 90.1118V84.564C121.62 83.4035 120.665 82.8232 119.392 82.8232C118.382 82.8232 117.592 83.2163 117.023 84.0024C116.454 84.7886 116.169 85.9528 116.169 87.4951ZM129.455 81.2847L129.522 82.812C130.451 81.644 131.663 81.0601 133.161 81.0601C135.729 81.0601 137.024 82.5088 137.047 85.4062V93.436H134.969V85.395C134.962 84.519 134.759 83.8714 134.363 83.4521C133.973 83.0329 133.363 82.8232 132.532 82.8232C131.858 82.8232 131.267 83.0029 130.758 83.3623C130.248 83.7217 129.852 84.1934 129.567 84.7773V93.436H127.49V81.2847H129.455ZM153.387 93.436C153.267 93.1965 153.17 92.7697 153.095 92.1558C152.129 93.159 150.976 93.6606 149.636 93.6606C148.438 93.6606 147.454 93.3237 146.682 92.6499C145.919 91.9686 145.537 91.1076 145.537 90.0669C145.537 88.8016 146.016 87.8208 146.974 87.1245C147.94 86.4207 149.295 86.0688 151.04 86.0688H153.061V85.1143C153.061 84.388 152.844 83.8115 152.41 83.3848C151.976 82.9505 151.336 82.7334 150.49 82.7334C149.748 82.7334 149.127 82.9206 148.625 83.2949C148.124 83.6693 147.873 84.1222 147.873 84.6538H145.784C145.784 84.0474 145.997 83.4634 146.424 82.9019C146.858 82.3328 147.442 81.8836 148.176 81.5542C148.917 81.2248 149.73 81.0601 150.613 81.0601C152.013 81.0601 153.11 81.4119 153.904 82.1157C154.697 82.812 155.109 83.7741 155.139 85.002V90.5947C155.139 91.7103 155.281 92.5975 155.566 93.2563V93.436H153.387ZM149.939 91.8525C150.591 91.8525 151.208 91.6841 151.792 91.3472C152.376 91.0103 152.799 90.5723 153.061 90.0332V87.54H151.433C148.887 87.54 147.615 88.285 147.615 89.7749C147.615 90.4263 147.832 90.9354 148.266 91.3022C148.7 91.6691 149.258 91.8525 149.939 91.8525ZM160.361 81.2847L160.428 82.812C161.357 81.644 162.57 81.0601 164.067 81.0601C166.635 81.0601 167.93 82.5088 167.953 85.4062V93.436H165.875V85.395C165.868 84.519 165.666 83.8714 165.269 83.4521C164.879 83.0329 164.269 82.8232 163.438 82.8232C162.764 82.8232 162.173 83.0029 161.664 83.3623C161.155 83.7217 160.758 84.1934 160.473 84.7773V93.436H158.396V81.2847H160.361ZM170.581 87.2593C170.581 85.395 171.023 83.8976 171.906 82.7671C172.789 81.6291 173.946 81.0601 175.376 81.0601C176.799 81.0601 177.926 81.5467 178.757 82.52V76.186H180.834V93.436H178.925L178.824 92.1333C177.993 93.1515 176.836 93.6606 175.354 93.6606C173.946 93.6606 172.797 93.0841 171.906 91.9312C171.023 90.7782 170.581 89.2733 170.581 87.4165V87.2593ZM172.658 87.4951C172.658 88.8727 172.943 89.9508 173.512 90.7295C174.081 91.5081 174.867 91.8975 175.87 91.8975C177.188 91.8975 178.15 91.306 178.757 90.123V84.5415C178.135 83.396 177.181 82.8232 175.893 82.8232C174.875 82.8232 174.081 83.2163 173.512 84.0024C172.943 84.7886 172.658 85.9528 172.658 87.4951ZM190.099 93.436V77.0845H194.715C196.138 77.0845 197.395 77.3989 198.489 78.0278C199.582 78.6567 200.424 79.5514 201.015 80.7119C201.614 81.8724 201.918 83.2051 201.925 84.71V85.7544C201.925 87.2967 201.626 88.6481 201.027 89.8086C200.435 90.9691 199.585 91.86 198.477 92.4814C197.377 93.1029 196.093 93.4211 194.625 93.436H190.099ZM192.256 78.8589V91.6729H194.524C196.186 91.6729 197.478 91.1562 198.399 90.123C199.327 89.0898 199.791 87.6187 199.791 85.7095V84.7549C199.791 82.8981 199.353 81.4569 198.477 80.4312C197.609 79.3979 196.373 78.8739 194.771 78.8589H192.256ZM209.91 93.6606C208.263 93.6606 206.923 93.1216 205.889 92.0435C204.856 90.9578 204.34 89.5091 204.34 87.6973V87.3154C204.34 86.11 204.568 85.0356 205.025 84.0923C205.489 83.1414 206.133 82.4002 206.956 81.8687C207.787 81.3296 208.686 81.0601 209.652 81.0601C211.231 81.0601 212.459 81.5804 213.335 82.6211C214.211 83.6618 214.649 85.1517 214.649 87.0908V87.9556H206.417C206.447 89.1535 206.795 90.123 207.462 90.8643C208.135 91.598 208.989 91.9648 210.022 91.9648C210.756 91.9648 211.377 91.8151 211.886 91.5156C212.396 91.2161 212.841 90.8193 213.223 90.3252L214.492 91.3135C213.474 92.8783 211.946 93.6606 209.91 93.6606ZM209.652 82.7671C208.813 82.7671 208.109 83.0741 207.54 83.688C206.971 84.2944 206.619 85.1479 206.485 86.2485H212.572V86.0913C212.512 85.0356 212.227 84.2196 211.718 83.6431C211.209 83.0591 210.52 82.7671 209.652 82.7671ZM220.916 90.6172L223.926 81.2847H226.048L221.691 93.436H220.107L215.705 81.2847H217.827L220.916 90.6172ZM232.932 93.6606C231.285 93.6606 229.945 93.1216 228.912 92.0435C227.879 90.9578 227.362 89.5091 227.362 87.6973V87.3154C227.362 86.11 227.59 85.0356 228.047 84.0923C228.511 83.1414 229.155 82.4002 229.979 81.8687C230.81 81.3296 231.708 81.0601 232.674 81.0601C234.254 81.0601 235.482 81.5804 236.358 82.6211C237.234 83.6618 237.672 85.1517 237.672 87.0908V87.9556H229.44C229.47 89.1535 229.818 90.123 230.484 90.8643C231.158 91.598 232.011 91.9648 233.045 91.9648C233.778 91.9648 234.4 91.8151 234.909 91.5156C235.418 91.2161 235.864 90.8193 236.245 90.3252L237.514 91.3135C236.496 92.8783 234.969 93.6606 232.932 93.6606ZM232.674 82.7671C231.836 82.7671 231.132 83.0741 230.563 83.688C229.994 84.2944 229.642 85.1479 229.507 86.2485H235.594V86.0913C235.534 85.0356 235.25 84.2196 234.74 83.6431C234.231 83.0591 233.543 82.7671 232.674 82.7671ZM242.344 93.436H240.266V76.186H242.344V93.436ZM245.129 87.248C245.129 86.0576 245.361 84.987 245.825 84.0361C246.297 83.0853 246.948 82.3516 247.779 81.835C248.618 81.3184 249.572 81.0601 250.643 81.0601C252.297 81.0601 253.634 81.6328 254.652 82.7783C255.678 83.9238 256.191 85.4474 256.191 87.3491V87.4951C256.191 88.6781 255.962 89.7412 255.506 90.6846C255.056 91.6204 254.409 92.3504 253.563 92.8745C252.724 93.3986 251.758 93.6606 250.665 93.6606C249.018 93.6606 247.682 93.0879 246.656 91.9424C245.638 90.7969 245.129 89.2808 245.129 87.394V87.248ZM247.218 87.4951C247.218 88.8428 247.528 89.9246 248.15 90.7407C248.779 91.5568 249.617 91.9648 250.665 91.9648C251.721 91.9648 252.559 91.5531 253.181 90.7295C253.802 89.8984 254.113 88.738 254.113 87.248C254.113 85.9154 253.795 84.8372 253.158 84.0137C252.53 83.1826 251.691 82.7671 250.643 82.7671C249.617 82.7671 248.79 83.1751 248.161 83.9912C247.532 84.8073 247.218 85.9753 247.218 87.4951ZM269.061 87.4951C269.061 89.3444 268.638 90.8343 267.792 91.9648C266.946 93.0954 265.8 93.6606 264.355 93.6606C262.88 93.6606 261.72 93.1927 260.874 92.2568V98.1079H258.796V81.2847H260.694L260.795 82.6323C261.641 81.5841 262.817 81.0601 264.322 81.0601C265.781 81.0601 266.934 81.6104 267.781 82.7109C268.634 83.8115 269.061 85.3426 269.061 87.3042V87.4951ZM266.983 87.2593C266.983 85.8892 266.691 84.8073 266.107 84.0137C265.523 83.2201 264.722 82.8232 263.704 82.8232C262.446 82.8232 261.503 83.381 260.874 84.4966V90.3027C261.495 91.4108 262.446 91.9648 263.726 91.9648C264.722 91.9648 265.512 91.5718 266.096 90.7856C266.687 89.992 266.983 88.8166 266.983 87.2593ZM273.665 81.2847L273.721 82.6323C274.612 81.5841 275.814 81.0601 277.326 81.0601C279.026 81.0601 280.183 81.7114 280.797 83.0142C281.201 82.4302 281.725 81.9585 282.369 81.5991C283.02 81.2397 283.788 81.0601 284.671 81.0601C287.337 81.0601 288.692 82.4714 288.737 85.2939V93.436H286.659V85.4175C286.659 84.549 286.461 83.9014 286.064 83.4746C285.667 83.0404 285.001 82.8232 284.065 82.8232C283.294 82.8232 282.653 83.0553 282.144 83.5195C281.635 83.9762 281.339 84.5939 281.257 85.3726V93.436H279.168V85.4736C279.168 83.7067 278.303 82.8232 276.574 82.8232C275.211 82.8232 274.279 83.4035 273.778 84.564V93.436H271.7V81.2847H273.665ZM296.924 93.6606C295.276 93.6606 293.936 93.1216 292.903 92.0435C291.87 90.9578 291.353 89.5091 291.353 87.6973V87.3154C291.353 86.11 291.582 85.0356 292.038 84.0923C292.503 83.1414 293.146 82.4002 293.97 81.8687C294.801 81.3296 295.699 81.0601 296.665 81.0601C298.245 81.0601 299.473 81.5804 300.349 82.6211C301.225 83.6618 301.663 85.1517 301.663 87.0908V87.9556H293.431C293.461 89.1535 293.809 90.123 294.475 90.8643C295.149 91.598 296.003 91.9648 297.036 91.9648C297.77 91.9648 298.391 91.8151 298.9 91.5156C299.409 91.2161 299.855 90.8193 300.237 90.3252L301.506 91.3135C300.487 92.8783 298.96 93.6606 296.924 93.6606ZM296.665 82.7671C295.827 82.7671 295.123 83.0741 294.554 83.688C293.985 84.2944 293.633 85.1479 293.498 86.2485H299.585V86.0913C299.525 85.0356 299.241 84.2196 298.732 83.6431C298.223 83.0591 297.534 82.7671 296.665 82.7671ZM306.043 81.2847L306.11 82.812C307.038 81.644 308.251 81.0601 309.749 81.0601C312.317 81.0601 313.612 82.5088 313.635 85.4062V93.436H311.557V85.395C311.549 84.519 311.347 83.8714 310.95 83.4521C310.561 83.0329 309.951 82.8232 309.12 82.8232C308.446 82.8232 307.855 83.0029 307.345 83.3623C306.836 83.7217 306.44 84.1934 306.155 84.7773V93.436H304.077V81.2847H306.043ZM319.587 78.3423V81.2847H321.855V82.8906H319.587V90.4263C319.587 90.9129 319.688 91.2798 319.89 91.5269C320.092 91.7664 320.436 91.8862 320.923 91.8862C321.163 91.8862 321.492 91.8413 321.911 91.7515V93.436C321.365 93.5858 320.833 93.6606 320.317 93.6606C319.388 93.6606 318.688 93.3799 318.217 92.8184C317.745 92.2568 317.509 91.4595 317.509 90.4263V82.8906H315.297V81.2847H317.509V78.3423H319.587Z" fill="#ECC091"/>
<path d="M38.485 59.753C39.8779 59.3744 41.2342 58.8724 42.538 58.253C46.1232 56.6244 49.1269 53.9419 51.149 50.563C53.1899 47.0165 54.2208 42.9789 54.13 38.8881V18.145L38.485 59.753ZM52.041 3.65021e-05H43.52C43.2453 -0.000620945 42.9732 0.0528973 42.7193 0.157522C42.4653 0.262148 42.2345 0.415837 42.04 0.609778C41.8455 0.803719 41.6911 1.03411 41.5858 1.28777C41.4804 1.54143 41.4261 1.81338 41.426 2.08805V36.713C41.426 37.521 41.398 38.2961 41.336 39.0311L52.186 10.174L54.128 10.904V2.09104C54.1285 1.81678 54.0749 1.5451 53.9702 1.2916C53.8656 1.0381 53.7119 0.807756 53.518 0.613775C53.3241 0.419795 53.0938 0.266004 52.8404 0.1612C52.5869 0.0563957 52.3153 0.00264716 52.041 0.00304248V3.65021e-05ZM29.549 50.2411C25.2437 50.2411 22.16 49.1577 20.298 46.9911C18.436 44.8244 17.5027 41.4264 17.498 36.7971V2.09104C17.4979 1.81637 17.4436 1.54442 17.3382 1.29076C17.2329 1.0371 17.0785 0.80671 16.884 0.612768C16.6895 0.418827 16.4587 0.265154 16.2047 0.160528C15.9508 0.0559033 15.6787 0.00238504 15.404 0.00304248H6.88901C6.61434 0.00238504 6.34224 0.0559033 6.08828 0.160528C5.83432 0.265154 5.60348 0.418827 5.40899 0.612768C5.21449 0.80671 5.06015 1.0371 4.95479 1.29076C4.84944 1.54442 4.79514 1.81637 4.79501 2.09104V38.7281C4.79501 45.6101 6.93368 51.0304 11.211 54.989C15.4883 58.9477 21.4907 60.9274 29.218 60.928C30.5394 60.9312 31.8601 60.8675 33.175 60.7371L38.182 47.4221C36.2847 49.3034 33.407 50.243 29.549 50.2411Z" fill="#913252"/>
<path d="M115.801 57.653L97.701 30.653C97.5731 30.4633 97.4888 30.2476 97.4542 30.0215C97.4196 29.7953 97.4356 29.5643 97.501 29.345C97.523 29.272 97.546 29.205 97.574 29.137C97.602 29.069 97.641 29.002 97.681 28.937L106.505 15.005L113.078 4.62103L114.478 2.41504C114.629 2.17708 114.712 1.90308 114.721 1.62163C114.729 1.34017 114.662 1.0616 114.526 0.81497C114.391 0.568344 114.191 0.362712 113.948 0.219541C113.706 0.0763705 113.43 0.000910596 113.148 0.00103528H103.179C102.905 -0.000296848 102.635 0.0706107 102.396 0.206647C102.158 0.342684 101.959 0.539054 101.821 0.776029L98.476 6.46803L100.895 7.36804L96.752 18.392L93.317 27.536L93.238 27.736L89.073 38.811C89.3142 38.8319 89.5471 38.9094 89.7528 39.0371C89.9585 39.1648 90.1313 39.3391 90.257 39.546L102.432 59.346C102.573 59.5758 102.77 59.7656 103.005 59.8973C103.24 60.029 103.505 60.0981 103.774 60.098H114.494C114.778 60.0973 115.057 60.0196 115.301 59.8731C115.545 59.7266 115.744 59.5168 115.878 59.2661C116.012 59.0153 116.076 58.7329 116.062 58.4489C116.049 58.1649 115.958 57.8899 115.801 57.653ZM90.912 19.337C90.7733 19.5719 90.576 19.7668 90.3394 19.9025C90.1027 20.0383 89.8349 20.1102 89.5621 20.1113C89.2893 20.1124 89.0209 20.0427 88.7832 19.9089C88.5455 19.7751 88.3466 19.5818 88.206 19.348L77.075 0.763029C76.9367 0.529219 76.7396 0.335732 76.5033 0.201856C76.2669 0.0679803 75.9996 -0.00160793 75.728 2.81989e-05H65.44C65.1577 -0.000755914 64.8804 0.0746049 64.6373 0.218168C64.3942 0.361731 64.1943 0.568184 64.0587 0.815794C63.923 1.0634 63.8567 1.343 63.8666 1.62515C63.8765 1.9073 63.9623 2.18155 64.115 2.41903L80.68 28.257C80.8058 28.4543 80.8861 28.677 80.9152 28.9091C80.9442 29.1412 80.9213 29.3769 80.848 29.599C80.831 29.65 80.809 29.706 80.786 29.756C80.7712 29.7904 80.7542 29.8239 80.735 29.856C80.7184 29.8905 80.6997 29.9239 80.679 29.956L62.846 57.68C62.6934 57.9174 62.6075 58.1915 62.5972 58.4736C62.5868 58.7556 62.6525 59.0352 62.7874 59.2831C62.9222 59.531 63.1213 59.7381 63.3636 59.8827C63.606 60.0273 63.8828 60.1041 64.165 60.105H74.055C74.3242 60.1044 74.5888 60.035 74.8237 59.9034C75.0586 59.7718 75.2559 59.5823 75.397 59.353L78.013 55.093L78.024 55.076L86.663 32.084L86.702 31.977L86.758 31.82L92.422 16.765L90.912 19.337Z" fill="#913252"/>
</svg>
